PathFileType	3	(X/Y/Z)	D:\minhoCalibration\240510\subject5_KPNP\preferred\preferred10.trc
DataRate	CameraRate	NumFrames	NumMarkers	Units	OrigDataRate	OrigDataStartFrame	OrigNumFrames
200.0	200.0	18	10	mm	200.0	160	121	
Frame#	Time	Left_Ankle_Outer1			Left_Ankle_Inner1			Left_Knee_Outer1			Left_Knee_Inner1			Left_Wrist1			Right_Wrist1			Right_Knee_Inner1			Right_Knee_Outer1			Right_Ankle_Inner1			Right_Ankle_Outer1			
		X1	Y1	Z1	X2	Y2	Z2	X3	Y3	Z3	X4	Y4	Z4	X5	Y5	Z5	X6	Y6	Z6	X7	Y7	Z7	X8	Y8	Z8	X9	Y9	Z9	X10	Y10	Z10	
160	0.79	-462.8671	73.652222	-632.59613	-506.33389	87.960083	-610.88562	-322.43411	527.28418	-544.97186	-406.58789	516.07642	-505.10699	-312.19043	1006.1972	-711.86115	-628.73364	1081.6656	-646.19574	-701.73944	636.23773	-325.3436	-773.85291	697.7207	-339.79041	-714.78479	382.29776	-712.31793	-775.28027	454.88321	-737.72046
161	0.795	-462.72864	74.059296	-632.81781	-506.59204	88.734062	-610.56848	-320.8858	527.3302	-547.52771	-404.4129	516.45001	-505.98596	-311.88336	1006.3569	-713.89404	-625.22089	1085.1832	-640.31567	-694.15479	647.48737	-308.33389	-766.54962	709.94824	-321.1282	-718.84509	394.60873	-695.87256	-779.25818	467.95209	-719.34381
162	0.8	-462.79984	74.264038	-632.95636	-506.64307	89.681152	-609.98792	-319.32397	527.58954	-549.99829	-402.34259	517.38849	-505.62073	-311.6947	1006.3589	-716.24841	-621.61749	1088.8716	-633.82727	-686.29462	658.81909	-291.71161	-757.97211	722.03821	-303.69992	-723.25848	407.36343	-679.35571	-783.31604	481.70209	-701.21979
163	0.805	-462.85104	74.544868	-633.1933	-506.44083	89.710732	-609.72278	-317.97202	527.68646	-552.61096	-400.37878	517.45404	-506.27463	-311.94803	1006.2855	-718.69965	-618.84668	1093.0552	-625.24524	-678.19135	670.26245	-275.37494	-749.30725	735.02435	-285.97018	-727.5155	420.28778	-663.41406	-787.24213	495.44434	-682.78442
164	0.81	-462.98862	74.943398	-633.32391	-506.51337	90.08445	-609.67371	-316.98889	527.70605	-554.93451	-398.07642	517.32648	-507.51758	-312.52719	1005.9534	-721.34827	-614.11859	1096.8086	-620.01483	-669.75043	681.76465	-259.2966	-739.7804	747.75568	-269.44662	-732.2558	433.78473	-646.18164	-791.22345	510.03085	-664.65936
165	0.815	-463.16687	75.349594	-633.1701	-506.17194	91.071556	-608.92194	-315.36917	528.06311	-557.51251	-395.63733	517.3396	-509.38873	-313.38931	1005.5073	-724.23376	-611.01593	1100.8367	-612.37372	-661.3075	693.72894	-243.63699	-730.68152	761.34589	-252.06876	-736.99072	447.51883	-629.60492	-795.10193	524.8241	-646.41992
166	0.82	-463.60025	75.627411	-633.10168	-506.08176	91.026772	-608.78314	-314.05484	528.09998	-560.12103	-393.30475	517.32526	-510.24716	-314.5087	1005.0383	-727.27588	-607.96948	1104.7665	-605.08649	-652.35309	705.58417	-228.48981	-720.66882	774.74139	-236.07097	-741.89978	461.64365	-612.8855	-798.8775	540.01874	-628.19678
167	0.825	-463.99438	75.87767	-633.09802	-506.3399	91.668503	-608.74835	-312.82086	528.28394	-562.4765	-390.69385	517.80927	-510.94992	-315.97314	1004.5829	-730.27679	-604.2085	1109.397	-598.60205	-642.79706	717.54633	-213.62361	-710.05054	788.32208	-220.61136	-746.86572	475.97546	-596.13599	-802.50848	555.56787	-610.03442
168	0.83	-464.96497	75.909729	-632.70306	-506.44141	92.169502	-608.12701	-311.31726	528.42944	-564.9707	-387.8735	518.64734	-511.20203	-318.38507	1003.2023	-733.86401	-601.75989	1114.6122	-593.77545	-633.12402	729.78082	-199.54256	-698.49841	801.93066	-205.85599	-751.96552	490.63501	-579.32684	-806.13727	571.68127	-591.54614
169	0.835	-465.21204	76.729515	-632.96594	-506.9827	92.762848	-607.15918	-310.08359	528.42847	-567.22687	-385.57385	518.89581	-509.85654	-320.83917	1002.1039	-737.18927	-598.38123	1119.2323	-587.29407	-622.74158	741.83478	-185.76497	-686.88586	815.62585	-191.19594	-757.25958	505.64963	-562.42841	-809.72668	587.94354	-573.33026
170	0.84	-466.28891	77.089828	-632.68842	-507.73889	93.411308	-605.59222	-308.99677	528.28308	-569.25836	-382.79611	518.30341	-510.37659	-323.64038	1000.8751	-740.612	-587.43762	1122.7153	-578.02362	-612.16388	753.98938	-172.87756	-674.32819	829.41351	-177.26947	-762.66022	520.93365	-545.47754	-813.23578	604.60339	-555.02979
171	0.845	-467.49963	77.34124	-632.09155	-508.56857	93.798775	-604.08728	-307.63803	528.12152	-571.22931	-380.06082	518.18445	-510.75308	-326.86008	999.23853	-744.29712	-581.1153	1127.1987	-571.16064	-600.89191	765.89191	-160.38393	-661.17279	842.90155	-164.31548	-768.39288	536.50494	-528.31927	-816.66412	621.50269	-536.64465
172	0.85	-468.5817	77.807266	-631.53986	-509.07278	94.486694	-603.20575	-306.3093	527.98401	-572.98053	-377.29208	518.33081	-509.74667	-331.5481	997.20325	-748.97882	-575.09753	1131.7439	-565.37128	-589.35132	777.96021	-148.62859	-647.38568	856.4082	-152.04047	-774.21509	552.34088	-511.01266	-820.15088	638.73859	-518.12469
173	0.855	-469.93594	78.314995	-630.69647	-510.02759	95.341064	-601.05219	-304.96512	527.82648	-574.64056	-373.689	517.93408	-510.4744	-335.59967	995.44446	-752.81421	-569.39014	1135.8723	-559.40942	-577.18597	789.7182	-137.58453	-633.07611	869.93048	-140.23563	-780.11792	568.43677	-493.1792	-823.49695	656.27441	-499.3768
174	0.86	-471.56998	78.706184	-629.64172	-510.22333	96.080284	-600.07935	-303.46313	527.70599	-576.23755	-370.47446	518.14398	-508.15463	-340.14075	993.42596	-755.57581	-563.49915	1139.2886	-554.70453	-564.6427	801.27466	-127.26015	-618.03223	882.7771	-129.63084	-786.28864	584.8028	-474.93646	-826.69482	674.04926	-480.10056
175	0.865	-473.11935	79.512527	-628.56006	-511.38257	97.240311	-597.42395	-302.36377	527.59003	-577.55328	-366.91641	517.79523	-507.61957	-345.4313	991.23505	-757.67053	-558.58496	1143.9812	-547.20538	-551.56506	812.38147	-117.76752	-602.435	896.25195	-118.85606	-792.32452	601.40454	-456.21155	-829.73334	692.0036	-460.65936
176	0.87	-474.56229	80.239204	-627.42316	-512.0578	97.654335	-596.3078	-301.35931	527.53442	-578.66583	-363.53253	518.00031	-507.03156	-350.70782	989.14722	-760.1886	-552.58459	1148.2568	-541.08459	-538.16779	823.18292	-109.01328	-586.08044	908.4209	-110.1413	-798.50421	618.25708	-436.62683	-832.55048	710.18091	-440.71368
177	0.875	-475.98737	80.89769	-626.37836	-513.3222	98.661736	-593.63446	-300.5242	527.61212	-579.66077	-360.31479	517.87799	-506.38354	-356.17139	986.47083	-760.60608	-546.49487	1152.0118	-537.37079	-524.33557	833.72137	-101.01575	-569.38007	920.4942	-101.77118	-804.30646	635.44177	-416.38879	-835.19067	728.36707	-419.75443
